<?xml version="1.0" standalone="no"?><svg xmlns="http://www.w3.org/2000/svg" viewBox="0 0 1440 320"><path fill="#0099ff" fill-opacity="1" d="M0,256L15,256C30,256,60,256,90,234.7C120,213,150,171,180,133.3C210,96,240,64,270,96C300,128,330,224,360,256C390,288,420,256,450,234.7C480,213,510,203,540,192C570,181,600,171,630,186.7C660,203,690,245,720,250.7C750,256,780,224,810,213.3C840,203,870,213,900,192C930,171,960,117,990,117.3C1020,117,1050,171,1080,181.3C1110,192,1140,160,1170,138.7C1200,117,1230,107,1260,112C1290,117,1320,139,1350,170.7C1380,203,1410,245,1425,266.7L1440,288L1440,0L1425,0C1410,0,1380,0,1350,0C1320,0,1290,0,1260,0C1230,0,1200,0,1170,0C1140,0,1110,0,1080,0C1050,0,1020,0,990,0C960,0,930,0,900,0C870,0,840,0,810,0C780,0,750,0,720,0C690,0,660,0,630,0C600,0,570,0,540,0C510,0,480,0,450,0C420,0,390,0,360,0C330,0,300,0,270,0C240,0,210,0,180,0C150,0,120,0,90,0C60,0,30,0,15,0L0,0Z"></path></svg>